<svg xmlns="http://www.w3.org/2000/svg" version="1.1" xmlns:xlink="http://www.w3.org/1999/xlink" xmlns:svgjs="http://svgjs.dev/svgjs" width="1440" height="560" preserveAspectRatio="none" viewBox="0 0 1440 560"><g mask="url(&quot;#SvgjsMask1023&quot;)" fill="none"><path d="M1647.39 495.75C1516.43 494.88 1421.19 385.56 1138.23 372.55 855.27 359.54 785.77 18.26 629.07-1.06" stroke="rgba(51,121,194,0.58)" stroke-width="2"></path><path d="M1694.05 108.34C1523.71 109.65 1286.27 277.32 1033.72 276.34 781.17 275.36 822.2-56.54 703.56-90.29" stroke="rgba(51,121,194,0.58)" stroke-width="2"></path><path d="M1542.58 445.75C1395.34 443.79 1286.38 282.56 979.71 272.15 673.05 261.74 577.81-32.76 416.85-43.27" stroke="rgba(51,121,194,0.58)" stroke-width="2"></path><path d="M1582.93 220.35C1446.1 226.23 1343.12 457.4 1088.17 455.55 833.22 453.7 761.96 11.11 593.41-26.42" stroke="rgba(51,121,194,0.58)" stroke-width="2"></path><path d="M1672.2 276.63C1493.57 277.49 1332.64 430.06 973.87 427.83 615.1 425.6 486.35-30.78 275.54-53.32" stroke="rgba(51,121,194,0.58)" stroke-width="2"></path></g><defs><mask id="SvgjsMask1023"><rect width="1440" height="560" fill="#ffffff"></rect></mask></defs></svg>